<svg width="258" height="102" viewBox="0 0 258 102" fill="none" xmlns="http://www.w3.org/2000/svg">
<g filter="url(#filter0_d_1_44)">
<path d="M63.0274 66.7688C63.0274 66.0544 63.0098 65.3577 62.9833 64.6786C62.9569 63.9995 62.9304 63.294 62.8951 62.5884C63.2038 62.6061 63.5125 62.6325 63.8123 62.6413C64.1122 62.659 64.4209 62.6678 64.7384 62.6678C65.0559 62.6678 65.3557 62.6502 65.6556 62.6237C65.9554 62.5972 66.2641 62.5796 66.5728 62.5796C67.0226 62.5796 67.4547 62.6237 67.8692 62.7119C68.2749 62.8001 68.6365 62.9412 68.9452 63.144C69.2538 63.3469 69.492 63.6026 69.6772 63.929C69.8535 64.2553 69.9417 64.661 69.9417 65.146C69.9417 65.6664 69.8271 66.1073 69.5978 66.4777C69.3685 66.8481 69.0863 67.1568 68.7511 67.3949C68.416 67.6419 68.0544 67.8271 67.6752 67.9594C67.296 68.0917 66.9432 68.1798 66.6345 68.2239C66.7668 68.3827 66.9432 68.612 67.1725 68.903C67.4018 69.1941 67.6487 69.5116 67.9309 69.8643C68.2132 70.2171 68.5042 70.5787 68.8041 70.9667C69.1039 71.346 69.3949 71.7164 69.6772 72.0691C69.9594 72.4219 70.224 72.7394 70.4709 73.0304C70.7178 73.3215 70.9207 73.542 71.0706 73.6919C70.9119 73.6743 70.7443 73.6566 70.5855 73.6566H69.6331C69.4743 73.6566 69.3156 73.6654 69.1656 73.6919C69.0069 73.4626 68.76 73.1275 68.4336 72.6777C68.1073 72.2279 67.7369 71.7428 67.3401 71.2225C66.9432 70.7022 66.5375 70.1906 66.123 69.6791C65.7085 69.1676 65.3293 68.7355 64.9853 68.3739H64.368V69.5557C64.368 70.27 64.3856 70.9667 64.4121 71.6546C64.4385 72.3425 64.465 73.0216 64.5002 73.6919C64.2533 73.6743 63.9887 73.6566 63.7065 73.6566C63.4243 73.6566 63.1597 73.6654 62.9128 73.6919C62.9481 73.0216 62.9745 72.3425 63.001 71.6546C63.0274 70.9667 63.0451 70.2612 63.0451 69.5557V66.7776L63.0274 66.7688ZM64.3503 67.686C64.5002 67.7212 64.6678 67.7389 64.8442 67.7477C65.0206 67.7565 65.2146 67.7653 65.4351 67.7653C65.7702 67.7653 66.1142 67.7301 66.4758 67.6507C66.8374 67.5713 67.1725 67.4478 67.4723 67.2538C67.7722 67.0686 68.028 66.8129 68.222 66.4954C68.4248 66.1779 68.5218 65.7722 68.5218 65.2871C68.5218 64.8638 68.4425 64.5198 68.2837 64.2464C68.125 63.9731 67.9221 63.7526 67.6752 63.5938C67.4282 63.4351 67.1549 63.3204 66.8638 63.2587C66.5728 63.197 66.2906 63.1705 66.0083 63.1705C65.6291 63.1705 65.3204 63.1705 65.0735 63.197C64.8266 63.2146 64.6149 63.2322 64.4385 63.2499C64.4209 63.8408 64.3944 64.4317 64.3768 65.0137C64.3591 65.5958 64.3415 66.1779 64.3415 66.7599V67.6771L64.3503 67.686Z" fill="white"/>
<path d="M77.7115 64.6433C77.6851 63.9554 77.6586 63.2675 77.6233 62.5708C78.1084 62.5884 78.5934 62.6149 79.0697 62.6237C79.5459 62.6413 80.031 62.6501 80.516 62.6501C81.0011 62.6501 81.4773 62.6501 81.9536 62.6237C82.4298 62.6061 82.9061 62.5884 83.3911 62.5708C83.3558 62.7295 83.3382 62.8971 83.3382 63.0558C83.3382 63.2146 83.3558 63.3821 83.3911 63.5409C83.0472 63.5233 82.7297 63.4968 82.4475 63.4792C82.1652 63.4615 81.8566 63.4351 81.5391 63.4174C81.2216 63.3998 80.8688 63.3733 80.4984 63.3645C80.128 63.3557 79.6694 63.338 79.1402 63.338C79.1314 63.682 79.1138 64.0083 79.0961 64.3258C79.0785 64.6345 79.0697 64.9961 79.0697 65.3929C79.0697 65.8163 79.0697 66.222 79.0697 66.6188C79.0697 67.0157 79.0697 67.3155 79.0697 67.5272C79.5459 67.5272 79.9692 67.5272 80.3485 67.5096C80.7277 67.5008 81.0716 67.4831 81.3803 67.4655C81.689 67.4478 81.98 67.4302 82.2446 67.4214C82.5092 67.4037 82.7561 67.3861 82.9943 67.3685C82.959 67.5272 82.9413 67.6948 82.9413 67.8712C82.9413 68.0299 82.959 68.1975 82.9943 68.3562C82.712 68.3209 82.3857 68.2945 82.0153 68.2768C81.6449 68.2592 81.2745 68.2416 80.9041 68.2328C80.5337 68.2328 80.1809 68.2239 79.8546 68.2151C79.5283 68.2151 79.2637 68.2151 79.0697 68.2151C79.0697 68.3121 79.0697 68.418 79.0697 68.5326C79.0697 68.6473 79.0697 68.7884 79.0697 68.9647V70.561C79.0697 71.1784 79.0697 71.6811 79.0697 72.0779C79.0697 72.4748 79.0873 72.7747 79.0961 72.9863H80.225C80.6307 72.9863 81.0364 72.9863 81.4332 72.9599C81.8301 72.9422 82.2005 72.9246 82.5445 72.8981C82.8884 72.8717 83.1971 72.8276 83.4617 72.7747C83.444 72.854 83.4264 72.9334 83.4176 73.0216C83.4176 73.1098 83.4176 73.198 83.4176 73.2686C83.4176 73.4449 83.4352 73.5772 83.4705 73.6919C82.9854 73.6742 82.5004 73.6566 82.0241 73.6566H79.0873C78.6023 73.6566 78.1084 73.6654 77.6145 73.6919C77.6498 73.004 77.6762 72.3161 77.7027 71.6282C77.7291 70.9403 77.7468 70.2435 77.7468 69.538V66.7599C77.7468 66.0456 77.7291 65.3488 77.7027 64.6609L77.7115 64.6433Z" fill="white"/>
<path d="M90.6759 72.175C90.817 72.3778 91.0022 72.5542 91.205 72.7129C91.4167 72.8717 91.6636 73.004 91.937 73.1098C92.2192 73.2156 92.5279 73.2597 92.8719 73.2597C93.2158 73.2597 93.551 73.198 93.8332 73.0745C94.1154 72.9511 94.3623 72.7835 94.5652 72.5718C94.768 72.3602 94.9179 72.1132 95.0238 71.831C95.1296 71.5488 95.1825 71.2401 95.1825 70.9138C95.1825 70.4199 95.0591 70.0231 94.8033 69.732C94.5475 69.441 94.2389 69.1941 93.8596 69C93.4804 68.806 93.0747 68.6296 92.6426 68.4621C92.2104 68.3033 91.7959 68.1005 91.4255 67.8535C91.0463 67.6154 90.7288 67.2979 90.4819 66.9275C90.2261 66.5483 90.1026 66.0456 90.1026 65.4106C90.1026 64.9608 90.182 64.5463 90.3407 64.1759C90.4995 63.8055 90.7376 63.4792 91.0463 63.2146C91.355 62.9412 91.7254 62.7383 92.1575 62.5796C92.5897 62.4297 93.0747 62.3503 93.6127 62.3503C94.1507 62.3503 94.574 62.412 94.9532 62.5355C95.3324 62.659 95.6852 62.853 96.0027 63.1088C95.9057 63.294 95.8263 63.488 95.7646 63.6908C95.7029 63.8937 95.6323 64.1582 95.5706 64.4669H95.3766C95.3236 64.317 95.2531 64.1494 95.1561 63.973C95.0591 63.7967 94.9444 63.6291 94.7857 63.4792C94.6269 63.3292 94.4417 63.2058 94.23 63.0999C94.0184 62.9941 93.7538 62.95 93.4539 62.95C93.1541 62.95 92.8719 62.9941 92.6249 63.0911C92.3692 63.1881 92.1487 63.3292 91.9635 63.5056C91.7783 63.682 91.6284 63.8937 91.5225 64.1406C91.4167 64.3875 91.3726 64.661 91.3726 64.952C91.3726 65.4547 91.4961 65.8604 91.7518 66.1514C92.0076 66.4424 92.3163 66.6894 92.6955 66.8834C93.0747 67.0862 93.4804 67.2626 93.9126 67.4214C94.3535 67.5801 94.7592 67.7653 95.1296 67.9946C95.5088 68.2239 95.8175 68.515 96.0733 68.8677C96.329 69.2205 96.4525 69.6968 96.4525 70.2876C96.4525 70.7815 96.3643 71.249 96.1879 71.6987C96.0115 72.1397 95.7558 72.5277 95.4118 72.8541C95.0679 73.1804 94.6534 73.4361 94.1683 73.6125C93.6744 73.7889 93.1188 73.8771 92.4926 73.8771C91.8224 73.8771 91.2844 73.7889 90.8699 73.6125C90.4554 73.4361 90.1114 73.2333 89.8292 73.004C89.9262 72.757 89.9968 72.5366 90.0321 72.3337C90.0673 72.1309 90.1026 71.8751 90.1379 71.5664H90.3319C90.4201 71.7605 90.5348 71.9545 90.6759 72.1573V72.175Z" fill="white"/>
<path d="M103.578 64.6698C103.552 63.9819 103.526 63.2851 103.49 62.5796C103.631 62.5972 103.764 62.6237 103.896 62.6325C104.028 62.6502 104.152 62.659 104.284 62.659C104.416 62.659 104.54 62.659 104.672 62.6325C104.804 62.6149 104.937 62.5972 105.078 62.5796C105.042 63.294 105.016 63.9907 104.99 64.6698C104.963 65.3577 104.945 66.0544 104.945 66.7599V69.538C104.945 70.2524 104.963 70.9491 104.99 71.637C105.016 72.3249 105.042 73.004 105.078 73.6743C104.831 73.6566 104.566 73.639 104.284 73.639C104.002 73.639 103.737 73.6478 103.49 73.6743C103.526 73.004 103.552 72.3249 103.578 71.637C103.605 70.9491 103.623 70.2436 103.623 69.538V66.7599C103.623 66.0456 103.605 65.3489 103.578 64.6698Z" fill="white"/>
<path d="M112.971 66.7688C112.971 66.0544 112.953 65.3577 112.927 64.6786C112.9 63.9907 112.874 63.294 112.839 62.5884C113.244 62.6061 113.659 62.6325 114.056 62.6413C114.461 62.659 114.867 62.6678 115.273 62.6678C115.679 62.6678 116.093 62.6502 116.49 62.6237C116.896 62.5972 117.301 62.5796 117.707 62.5796C118.659 62.5796 119.471 62.7031 120.141 62.95C120.811 63.197 121.367 63.5497 121.799 64.0083C122.231 64.4669 122.549 65.0225 122.743 65.6928C122.946 66.3543 123.043 67.1039 123.043 67.9329C123.043 69.0089 122.857 69.9172 122.487 70.6581C122.117 71.3989 121.64 71.9898 121.067 72.4484C120.494 72.907 119.859 73.2245 119.162 73.4097C118.465 73.5949 117.804 73.6919 117.169 73.6919C116.799 73.6919 116.437 73.6919 116.084 73.6743C115.731 73.6654 115.37 73.6566 114.999 73.6566H113.915C113.562 73.6566 113.2 73.6654 112.83 73.6919C112.865 73.0216 112.892 72.3425 112.918 71.6546C112.945 70.9667 112.962 70.2612 112.962 69.5557V66.7776L112.971 66.7688ZM114.294 69.5468C114.294 70.711 114.329 71.8575 114.391 72.9775C114.62 73.0304 114.929 73.0745 115.308 73.101C115.696 73.1275 116.093 73.1451 116.508 73.1451C117.098 73.1451 117.689 73.0745 118.289 72.9334C118.88 72.7923 119.409 72.5278 119.885 72.1397C120.353 71.7517 120.741 71.2225 121.032 70.5434C121.332 69.8731 121.473 69 121.473 67.9329C121.473 66.9981 121.358 66.222 121.129 65.6223C120.9 65.0225 120.582 64.5375 120.176 64.1935C119.771 63.8408 119.286 63.6026 118.73 63.4615C118.166 63.3292 117.557 63.2587 116.887 63.2587C116.402 63.2587 115.952 63.2763 115.529 63.3028C115.105 63.3381 114.735 63.3733 114.4 63.4174C114.364 63.9378 114.347 64.4758 114.329 65.0402C114.312 65.6046 114.303 66.1779 114.303 66.7599V69.538L114.294 69.5468Z" fill="white"/>
<path d="M130.354 64.6433C130.327 63.9554 130.301 63.2675 130.266 62.5708C130.751 62.5884 131.236 62.6149 131.712 62.6237C132.188 62.6413 132.673 62.6501 133.158 62.6501C133.643 62.6501 134.12 62.6501 134.596 62.6237C135.072 62.6061 135.548 62.5884 136.033 62.5708C135.998 62.7295 135.98 62.8971 135.98 63.0558C135.98 63.2146 135.998 63.3821 136.033 63.5409C135.689 63.5233 135.372 63.4968 135.09 63.4792C134.808 63.4615 134.499 63.4351 134.181 63.4174C133.864 63.3998 133.52 63.3733 133.141 63.3645C132.761 63.3469 132.312 63.338 131.783 63.338C131.774 63.682 131.756 64.0083 131.738 64.3258C131.721 64.6345 131.712 64.9961 131.712 65.3929C131.712 65.8163 131.712 66.222 131.712 66.6188C131.712 67.0157 131.712 67.3155 131.712 67.5272C132.188 67.5272 132.612 67.5272 132.991 67.5096C133.37 67.5008 133.714 67.4831 134.023 67.4655C134.331 67.4478 134.622 67.4302 134.887 67.4214C135.151 67.4037 135.398 67.3861 135.637 67.3685C135.601 67.5272 135.584 67.6948 135.584 67.8712C135.584 68.0299 135.601 68.1975 135.637 68.3562C135.354 68.3209 135.028 68.2945 134.658 68.2768C134.287 68.2592 133.917 68.2416 133.546 68.2328C133.176 68.2328 132.823 68.2239 132.497 68.2151C132.171 68.2151 131.906 68.2151 131.712 68.2151C131.712 68.3121 131.712 68.418 131.712 68.5326C131.712 68.6473 131.712 68.7884 131.712 68.9647V70.561C131.712 71.1784 131.712 71.6811 131.712 72.0779C131.712 72.4748 131.73 72.7747 131.738 72.9863H132.867C133.273 72.9863 133.679 72.9863 134.076 72.9599C134.472 72.9422 134.843 72.9246 135.187 72.8981C135.54 72.8717 135.839 72.8276 136.104 72.7747C136.086 72.854 136.069 72.9334 136.06 73.0216C136.06 73.1098 136.06 73.198 136.06 73.2686C136.06 73.4449 136.077 73.5772 136.113 73.6919C135.628 73.6742 135.143 73.6566 134.666 73.6566H131.73C131.245 73.6566 130.751 73.6654 130.257 73.6919C130.292 73.004 130.319 72.3161 130.345 71.6282C130.371 70.9403 130.389 70.2435 130.389 69.538V66.7599C130.389 66.0456 130.371 65.3488 130.345 64.6609L130.354 64.6433Z" fill="white"/>
<path d="M148.477 69.4851C147.075 67.9858 145.673 66.4865 144.271 64.9961C144.262 65.2959 144.253 65.7016 144.235 66.2131C144.218 66.7247 144.218 67.4126 144.218 68.2857C144.218 68.515 144.218 68.7884 144.218 69.1235C144.218 69.4586 144.227 69.8114 144.235 70.173C144.244 70.5346 144.253 70.9138 144.262 71.2842C144.271 71.6635 144.279 72.0162 144.297 72.3337C144.306 72.66 144.315 72.9422 144.332 73.1804C144.341 73.4273 144.35 73.5861 144.368 73.6742C144.191 73.6566 144.006 73.639 143.803 73.639C143.592 73.639 143.389 73.6478 143.203 73.6742C143.221 73.5684 143.248 73.3656 143.274 73.0745C143.301 72.7835 143.327 72.4395 143.345 72.0339C143.362 71.6282 143.389 71.1872 143.415 70.7198C143.442 70.2435 143.468 69.7673 143.477 69.2999C143.495 68.8236 143.503 68.365 143.521 67.9064C143.539 67.4478 143.539 67.051 143.539 66.6982C143.539 65.6663 143.539 64.7756 143.539 64.0348C143.539 63.294 143.521 62.7383 143.495 62.3679H143.75C144.412 63.0823 145.108 63.8408 145.858 64.6521C146.608 65.4635 147.349 66.2661 148.089 67.0598C148.83 67.8535 149.527 68.6032 150.188 69.3087C150.85 70.0142 151.432 70.614 151.926 71.1078V68.9118C151.926 67.783 151.926 66.6806 151.899 65.6046C151.882 64.5287 151.846 63.5233 151.793 62.5708C152.005 62.6237 152.19 62.6502 152.34 62.6502C152.473 62.6502 152.64 62.6237 152.861 62.5708C152.843 62.8089 152.816 63.1617 152.79 63.6379C152.764 64.1141 152.737 64.6168 152.711 65.1548C152.684 65.6928 152.658 66.222 152.64 66.7423C152.622 67.2626 152.605 67.6771 152.605 67.9858V68.9559C152.605 69.3263 152.605 69.7056 152.605 70.1024C152.605 70.4993 152.614 70.905 152.622 71.3107C152.622 71.7164 152.631 72.0956 152.64 72.4395C152.64 72.7923 152.64 73.0922 152.64 73.3568V73.8947H152.411C151.167 72.4572 149.853 70.9932 148.451 69.4851H148.477Z" fill="white"/>
<path d="M168.665 73.3038C168.453 73.4097 168.197 73.4979 167.906 73.5772C167.606 73.6566 167.28 73.7272 166.91 73.7977C166.539 73.8595 166.16 73.8947 165.763 73.8947C164.908 73.8947 164.123 73.7713 163.4 73.5331C162.676 73.295 162.059 72.9246 161.53 72.4219C161.01 71.928 160.595 71.3195 160.304 70.6051C160.004 69.8908 159.863 69.0706 159.863 68.1534C159.863 67.2362 160.013 66.4248 160.304 65.7016C160.604 64.9873 161.018 64.3787 161.548 63.8849C162.077 63.391 162.721 63.0117 163.461 62.756C164.202 62.5002 165.022 62.3679 165.922 62.3679C166.636 62.3679 167.28 62.4385 167.871 62.5884C168.462 62.7295 168.982 62.9059 169.432 63.1176C169.344 63.2675 169.273 63.4703 169.22 63.7349C169.167 63.9907 169.123 64.2112 169.088 64.3787L168.991 64.414C168.885 64.2817 168.735 64.1406 168.541 63.9819C168.347 63.8231 168.118 63.6644 167.862 63.5144C167.606 63.3645 167.315 63.241 166.989 63.1352C166.663 63.0294 166.31 62.9853 165.922 62.9853C165.287 62.9853 164.696 63.0911 164.149 63.294C163.602 63.4968 163.126 63.8143 162.729 64.2376C162.324 64.6609 162.006 65.1989 161.786 65.8515C161.556 66.5042 161.451 67.2803 161.451 68.171C161.451 69.0618 161.565 69.8379 161.786 70.4905C162.015 71.1431 162.324 71.6811 162.729 72.1044C163.135 72.5277 163.611 72.8452 164.149 73.0481C164.696 73.2509 165.287 73.3568 165.922 73.3568C166.31 73.3568 166.672 73.3127 166.998 73.2156C167.324 73.1186 167.624 73.004 167.906 72.8717C168.18 72.7394 168.427 72.5895 168.647 72.4395C168.868 72.2808 169.053 72.1485 169.203 72.025L169.264 72.0868L169.123 73.0393C169.026 73.1274 168.876 73.2156 168.665 73.3215V73.3038Z" fill="white"/>
<path d="M176.355 64.6433C176.329 63.9554 176.302 63.2675 176.267 62.5708C176.752 62.5884 177.237 62.6149 177.713 62.6237C178.19 62.6413 178.675 62.6501 179.16 62.6501C179.645 62.6501 180.121 62.6501 180.597 62.6237C181.073 62.6061 181.55 62.5884 182.035 62.5708C181.999 62.7295 181.982 62.8971 181.982 63.0558C181.982 63.2146 181.999 63.3821 182.035 63.5409C181.691 63.5233 181.373 63.4968 181.091 63.4792C180.809 63.4615 180.5 63.4351 180.183 63.4174C179.865 63.3998 179.521 63.3733 179.142 63.3645C178.763 63.3469 178.313 63.338 177.784 63.338C177.775 63.682 177.757 64.0083 177.74 64.3258C177.722 64.6345 177.713 64.9961 177.713 65.3929C177.713 65.8163 177.713 66.222 177.713 66.6188C177.713 67.0157 177.713 67.3155 177.713 67.5272C178.19 67.5272 178.613 67.5272 178.992 67.5096C179.371 67.5008 179.715 67.4831 180.024 67.4655C180.333 67.4478 180.624 67.4302 180.888 67.4214C181.153 67.4037 181.4 67.3861 181.638 67.3685C181.603 67.5272 181.585 67.6948 181.585 67.8712C181.585 68.0299 181.603 68.1975 181.638 68.3562C181.356 68.3209 181.029 68.2945 180.659 68.2768C180.289 68.2592 179.918 68.2416 179.548 68.2328C179.177 68.2328 178.825 68.2239 178.498 68.2151C178.172 68.2151 177.907 68.2151 177.713 68.2151C177.713 68.3121 177.713 68.418 177.713 68.5326C177.713 68.6473 177.713 68.7884 177.713 68.9647V70.561C177.713 71.1784 177.713 71.6811 177.713 72.0779C177.713 72.4748 177.731 72.7747 177.74 72.9863H178.869C179.274 72.9863 179.68 72.9863 180.077 72.9599C180.474 72.9422 180.844 72.9246 181.188 72.8981C181.532 72.8717 181.841 72.8276 182.105 72.7747C182.088 72.854 182.07 72.9334 182.061 73.0216C182.061 73.1098 182.061 73.198 182.061 73.2686C182.061 73.4449 182.079 73.5772 182.114 73.6919C181.629 73.6742 181.144 73.6566 180.668 73.6566H177.731C177.246 73.6566 176.752 73.6654 176.258 73.6919C176.293 73.004 176.32 72.3161 176.346 71.6282C176.373 70.9403 176.39 70.2435 176.39 69.538V66.7599C176.39 66.0456 176.373 65.3488 176.346 64.6609L176.355 64.6433Z" fill="white"/>
<path d="M189.328 72.175C189.469 72.3778 189.655 72.5542 189.866 72.7129C190.078 72.8717 190.325 73.004 190.598 73.1098C190.88 73.2156 191.189 73.2597 191.533 73.2597C191.877 73.2597 192.212 73.198 192.494 73.0745C192.777 72.9511 193.024 72.7835 193.226 72.5718C193.429 72.3602 193.579 72.1132 193.685 71.831C193.791 71.5488 193.844 71.2401 193.844 70.9138C193.844 70.4199 193.72 70.0231 193.465 69.732C193.209 69.441 192.9 69.1941 192.521 69C192.142 68.806 191.736 68.6296 191.304 68.4621C190.872 68.3033 190.457 68.1005 190.087 67.8535C189.708 67.6154 189.39 67.2979 189.143 66.9275C188.887 66.5483 188.764 66.0456 188.764 65.4106C188.764 64.9608 188.843 64.5463 189.011 64.1759C189.17 63.8055 189.408 63.4792 189.716 63.2146C190.025 62.95 190.395 62.7383 190.828 62.5796C191.26 62.4297 191.745 62.3503 192.283 62.3503C192.821 62.3503 193.244 62.412 193.623 62.5355C194.003 62.659 194.346 62.853 194.673 63.1088C194.576 63.294 194.496 63.488 194.426 63.6908C194.355 63.8937 194.294 64.1582 194.232 64.4669H194.038C193.985 64.317 193.914 64.1494 193.817 63.973C193.72 63.7967 193.606 63.6291 193.447 63.4792C193.288 63.3292 193.103 63.2058 192.891 63.0999C192.68 62.9941 192.415 62.95 192.115 62.95C191.815 62.95 191.533 62.9941 191.286 63.0911C191.03 63.1881 190.81 63.3292 190.625 63.5056C190.44 63.682 190.29 63.8937 190.184 64.1406C190.078 64.3875 190.034 64.661 190.034 64.952C190.034 65.4547 190.157 65.8604 190.413 66.1514C190.669 66.4424 190.978 66.6894 191.357 66.8834C191.736 67.0862 192.142 67.2626 192.574 67.4214C193.015 67.5801 193.42 67.7653 193.791 67.9946C194.17 68.2239 194.479 68.515 194.735 68.8677C194.99 69.2205 195.114 69.6968 195.114 70.2876C195.114 70.7815 195.026 71.249 194.849 71.6987C194.673 72.1397 194.408 72.5277 194.073 72.8541C193.729 73.1804 193.315 73.4361 192.83 73.6125C192.336 73.7889 191.78 73.8771 191.154 73.8771C190.484 73.8771 189.946 73.7889 189.531 73.6125C189.117 73.4361 188.764 73.2333 188.49 73.004C188.587 72.757 188.658 72.5366 188.693 72.3337C188.729 72.1309 188.764 71.8751 188.799 71.5664H188.993C189.081 71.7605 189.196 71.9545 189.337 72.1573L189.328 72.175Z" fill="white"/>
<path d="M48.5373 17.1074C48.5373 12.0892 48.308 7.01817 48.0699 2C49.0576 2.17639 49.9925 2.29103 50.9273 2.29103C51.8622 2.29103 52.797 2.17639 53.7848 2C53.5555 7.01817 53.3174 12.0892 53.3174 17.1074V27.1438C53.3174 32.1619 53.5467 37.233 53.7848 42.2512C52.797 42.0748 51.8622 41.9601 50.9273 41.9601C49.9925 41.9601 49.0576 42.0748 48.0699 42.2512C48.2992 37.233 48.5373 32.1619 48.5373 27.1438V17.1074Z" fill="white"/>
<path d="M116.613 17.1074C116.613 12.0892 116.384 7.01817 116.146 2C117.134 2.17639 118.068 2.29103 119.003 2.29103C119.938 2.29103 120.873 2.17639 121.861 2C121.631 7.01817 121.393 12.0892 121.393 17.1074V27.1438C121.393 32.1619 121.623 37.233 121.861 42.2512C120.873 42.0748 119.938 41.9601 119.003 41.9601C118.068 41.9601 117.134 42.0748 116.146 42.2512C116.375 37.233 116.613 32.1619 116.613 27.1438V17.1074Z" fill="white"/>
<path d="M141.104 17.0457C141.104 12.0275 140.875 6.95643 140.637 2C144.138 2.17639 147.578 2.29103 151.079 2.29103C154.58 2.29103 158.02 2.17639 161.459 2C161.345 2.58207 161.283 3.16414 161.283 3.74622C161.283 4.32829 161.345 4.91036 161.459 5.49243C156.556 5.13966 153.698 4.73397 146.123 4.73397C146.061 7.23865 145.893 9.28472 145.893 12.1422C145.893 15.176 145.955 18.3862 145.955 19.8414C152.834 19.8414 156.688 19.5504 160.128 19.2593C160.013 19.8414 159.951 20.4852 159.951 21.0673C159.951 21.6493 160.013 22.2314 160.128 22.8135C156.106 22.4078 148.751 22.2843 145.955 22.2843C145.893 23.6866 145.893 25.1418 145.893 30.742C145.893 35.1781 145.955 38.0356 146.008 39.4907C151.203 39.4907 158.082 39.429 161.759 38.7323C161.645 39.2614 161.583 40.0111 161.583 40.5402C161.583 41.0694 161.645 41.7044 161.759 42.2335C158.32 42.0571 154.818 41.9425 151.264 41.9425C147.71 41.9425 144.209 42.0571 140.646 42.2335C140.875 37.1624 141.113 32.0825 141.113 27.0732V17.0369L141.104 17.0457Z" fill="white"/>
<path d="M241.812 26.6146L234.518 9.11716L228.159 23.9335L227.048 26.6146C224.597 32.6205 222.383 38.5735 221.395 42.2424C220.637 42.066 219.94 41.9513 219.234 41.9513C218.529 41.9513 217.832 42.066 217.074 42.2424C223.318 28.5901 229.377 15.7669 235.33 2H236.441C242.156 15.5288 250.904 36.0071 254 42.2424C252.95 42.066 251.963 41.9513 250.904 41.9513C249.846 41.9513 248.867 42.066 247.818 42.2424C246.706 38.2208 243.911 31.8003 241.812 26.6146Z" fill="white"/>
<path d="M191.815 22.3549C196.251 21.7728 203.774 18.739 203.774 11.2161C203.774 4.27537 198.236 2 191.639 2C189.425 2 187.203 2.29103 184.989 2.29103C182.776 2.29103 179.257 2.17639 177.043 2C177.272 7.01817 177.51 12.0892 177.51 17.1074V27.1438C177.51 32.1619 177.281 37.233 177.043 42.2512C178.031 42.0748 178.966 41.9601 179.9 41.9601C180.835 41.9601 181.77 42.0748 182.758 42.2512C182.529 37.233 182.29 32.1619 182.29 27.1438V17.1074C182.29 12.9094 182.467 8.71147 182.643 4.45176C183.869 4.33711 186.921 4.16072 189.602 4.16072C193.57 4.16072 198.641 5.67764 198.641 11.7982C198.641 18.739 192.283 20.7233 187.503 20.7233C186.912 20.7233 186.347 20.7145 185.818 20.688V22.884C190.836 27.9551 202.487 38.6882 204.815 42.2424C205.926 42.066 207.09 41.9513 208.201 41.9513C209.366 41.9513 210.539 42.066 211.703 42.2424C208.316 38.4501 194.682 25.9091 191.824 22.3549" fill="white"/>
<path d="M18.7723 22.3549C23.2084 21.7728 30.7312 18.739 30.7312 11.2161C30.7312 4.27537 25.1927 2 18.5959 2C16.3823 2 14.1598 2.29103 11.9462 2.29103C9.73253 2.29103 6.21364 2.17639 4 2C4.2293 7.01817 4.46742 12.0892 4.46742 17.1074V27.1438C4.46742 32.1619 4.23812 37.233 4 42.2512C4.98776 42.0748 5.9226 41.9601 6.85744 41.9601C7.79229 41.9601 8.72713 42.0748 9.71489 42.2512C9.48559 37.233 9.24747 32.1619 9.24747 27.1438V17.1074C9.24747 12.9094 9.42385 8.71147 9.60024 4.45176C10.8261 4.33711 13.8776 4.16072 16.5586 4.16072C20.5273 4.16072 25.5984 5.67764 25.5984 11.7982C25.5984 18.739 19.2397 20.7233 14.4597 20.7233C13.8688 20.7233 13.3043 20.7145 12.7752 20.688V22.884C17.7933 27.9551 29.4436 38.6882 31.7719 42.2424C32.8831 42.066 34.0473 41.9513 35.1585 41.9513C36.3226 41.9513 37.4956 42.066 38.6598 42.2424C35.2732 38.4501 21.6385 25.9091 18.7811 22.3549" fill="white"/>
<path d="M67.1548 2C68.1426 2.17639 69.1921 2.29103 70.1887 2.29103C71.1853 2.29103 72.2259 2.17639 73.2225 2C76.662 12.3274 81.6185 24.692 86.522 36.4657C90.7817 27.0203 97.308 9.63749 99.7597 2C100.456 2.17639 101.215 2.29103 101.92 2.29103C102.626 2.29103 103.376 2.17639 104.081 2C98.0135 15.4141 92.4132 28.8282 87.2804 42.2424C86.6366 42.066 85.9928 41.9513 85.3578 41.9513C84.7228 41.9513 83.9556 42.066 83.4352 42.2424C79.934 32.6205 72.8168 15.4141 67.1637 2" fill="white"/>
<path d="M104.258 95.4667C104.178 95.4579 104.099 95.449 104.019 95.449H103.543C103.473 95.449 103.393 95.449 103.305 95.4667C103.261 95.3344 103.208 95.1668 103.137 94.9728C103.067 94.7788 102.988 94.5759 102.899 94.3643C102.811 94.1526 102.723 93.9409 102.635 93.7205C102.547 93.5 102.458 93.2971 102.388 93.1031C102.194 93.1031 102 93.0943 101.806 93.0855C101.612 93.0855 101.409 93.0855 101.215 93.0855C101.03 93.0855 100.853 93.0855 100.668 93.0855C100.492 93.0855 100.306 93.0855 100.121 93.1031C99.9273 93.5705 99.7597 94.0115 99.601 94.426C99.4422 94.8493 99.3276 95.1933 99.257 95.4667C99.1512 95.4579 99.0453 95.449 98.9307 95.449C98.816 95.449 98.7014 95.449 98.6044 95.4667C99.0894 94.426 99.5569 93.3941 100.015 92.3623C100.474 91.3304 100.933 90.2898 101.4 89.2226H101.568C101.709 89.5666 101.868 89.937 102.035 90.3427C102.203 90.7395 102.37 91.154 102.547 91.5597C102.723 91.9742 102.891 92.3799 103.067 92.7856C103.243 93.1913 103.402 93.5617 103.552 93.9145C103.702 94.2584 103.843 94.5759 103.958 94.8493C104.072 95.1227 104.178 95.3344 104.258 95.4755V95.4667ZM100.306 92.6886C100.465 92.6886 100.624 92.6886 100.792 92.6886C100.959 92.6886 101.118 92.6974 101.277 92.6974C101.444 92.6974 101.612 92.6974 101.779 92.6974C101.947 92.6974 102.114 92.6974 102.282 92.6798L101.294 90.4132L100.324 92.6798L100.306 92.6886Z" fill="white"/>
<path d="M106.93 91.6391C106.93 91.2422 106.93 90.863 106.903 90.4838C106.886 90.1046 106.868 89.7253 106.85 89.3461C107.009 89.3549 107.159 89.3726 107.327 89.3814C107.485 89.3902 107.644 89.399 107.803 89.399C107.962 89.399 108.112 89.399 108.279 89.3726C108.438 89.3549 108.597 89.3461 108.755 89.3461C109.011 89.3461 109.249 89.3637 109.479 89.4078C109.708 89.4431 109.902 89.5137 110.078 89.6107C110.255 89.7077 110.387 89.84 110.493 90.0075C110.59 90.1751 110.643 90.378 110.643 90.6337C110.643 91.0747 110.502 91.4186 110.228 91.6656C109.955 91.9125 109.593 92.0889 109.143 92.1947V92.2124C109.673 92.2388 110.087 92.3623 110.396 92.6004C110.704 92.8297 110.854 93.2001 110.854 93.7116C110.854 94.0468 110.784 94.3202 110.652 94.5495C110.51 94.7788 110.334 94.9552 110.114 95.0963C109.893 95.2374 109.655 95.3344 109.39 95.3873C109.126 95.4402 108.861 95.4755 108.597 95.4755C108.456 95.4755 108.306 95.4755 108.164 95.4755C108.015 95.4755 107.873 95.4667 107.732 95.4667H107.3C107.15 95.4667 107.009 95.4667 106.868 95.4843C106.886 95.1051 106.903 94.7259 106.921 94.3466C106.939 93.9674 106.947 93.5882 106.947 93.1913V91.6567L106.93 91.6391ZM108.147 92.0801C108.358 92.0801 108.561 92.0624 108.764 92.0183C108.967 91.9742 109.152 91.9037 109.311 91.8067C109.47 91.7097 109.602 91.5774 109.699 91.4098C109.796 91.2422 109.849 91.0394 109.849 90.7925C109.849 90.5455 109.805 90.3515 109.717 90.2104C109.628 90.0605 109.514 89.9546 109.382 89.8753C109.24 89.7959 109.09 89.743 108.914 89.7165C108.738 89.69 108.57 89.6724 108.394 89.6724C108.235 89.6724 108.112 89.6724 107.997 89.6901C107.891 89.6901 107.794 89.7077 107.715 89.7253C107.706 90.0076 107.688 90.2898 107.679 90.572C107.671 90.8542 107.662 91.1364 107.662 91.4186V92.0889H108.147V92.0801ZM107.662 93.3148C107.662 93.6146 107.662 93.9145 107.679 94.2143C107.697 94.5142 107.706 94.8141 107.715 95.1139C107.829 95.1227 107.962 95.1404 108.112 95.1492C108.27 95.1492 108.42 95.1668 108.588 95.1668C108.782 95.1668 108.958 95.1315 109.135 95.0698C109.311 95.0081 109.461 94.9111 109.593 94.7788C109.725 94.6553 109.831 94.4966 109.902 94.3025C109.981 94.1173 110.017 93.9057 110.017 93.6676C110.017 93.4118 109.972 93.2001 109.875 93.0414C109.787 92.8738 109.655 92.7503 109.479 92.6621C109.302 92.5739 109.099 92.5034 108.861 92.4681C108.623 92.4329 108.35 92.4152 108.059 92.4152H107.653V93.3236L107.662 93.3148Z" fill="white"/>
<path d="M118.527 92.2388C118.527 91.3922 118.527 90.7396 118.518 90.2898C118.518 89.8312 118.501 89.5137 118.474 89.3461C118.536 89.3549 118.607 89.3726 118.659 89.3814C118.721 89.3902 118.774 89.399 118.836 89.399C118.915 89.399 119.003 89.3814 119.1 89.3549C119.083 89.5666 119.065 89.8135 119.048 90.0957C119.03 90.3868 119.012 90.6955 119.003 91.0218C118.995 91.3481 118.977 91.692 118.968 92.036C118.959 92.3799 118.951 92.7239 118.942 93.0502C118.942 93.4471 118.871 93.8087 118.756 94.1173C118.642 94.4348 118.474 94.6994 118.263 94.9199C118.051 95.1404 117.786 95.3079 117.478 95.4226C117.169 95.5372 116.807 95.5901 116.402 95.5901C115.511 95.5901 114.858 95.3873 114.461 94.9816C114.065 94.5759 113.853 93.9409 113.853 93.0678C113.853 92.7856 113.853 92.5387 113.879 92.327C113.906 92.1154 113.906 91.8861 113.906 91.6656C113.906 91.1629 113.906 90.7219 113.888 90.3339C113.879 89.9458 113.862 89.6195 113.853 89.3549C113.924 89.3637 114.003 89.3814 114.082 89.3902C114.162 89.399 114.241 89.4078 114.312 89.4078C114.373 89.4078 114.444 89.4078 114.506 89.3902C114.567 89.3902 114.629 89.3726 114.7 89.3549C114.691 89.4872 114.673 89.6548 114.664 89.8664C114.656 90.0781 114.638 90.3162 114.629 90.5808C114.62 90.8454 114.611 91.1364 114.603 91.4451C114.594 91.7538 114.603 92.0713 114.603 92.4064C114.603 92.6092 114.603 92.8209 114.603 93.0326C114.603 93.2442 114.629 93.4647 114.664 93.6676C114.7 93.8704 114.761 94.0644 114.841 94.2584C114.92 94.4436 115.035 94.6112 115.185 94.7523C115.335 94.8934 115.52 94.9993 115.749 95.0786C115.978 95.158 116.252 95.2021 116.587 95.2021C116.922 95.2021 117.187 95.158 117.416 95.061C117.645 94.964 117.822 94.8405 117.963 94.6906C118.104 94.5318 118.219 94.3554 118.298 94.1526C118.377 93.9498 118.439 93.7381 118.474 93.5176C118.51 93.2971 118.527 93.0766 118.536 92.8562C118.536 92.6357 118.545 92.4329 118.545 92.2476L118.527 92.2388Z" fill="white"/>
<path d="M126.861 91.6479C126.861 91.2511 126.861 90.8718 126.835 90.4926C126.817 90.1134 126.8 89.7341 126.782 89.3373C127.011 89.3461 127.232 89.3637 127.452 89.3726C127.673 89.3814 127.902 89.3902 128.123 89.3902C128.343 89.3902 128.572 89.3902 128.793 89.3637C129.013 89.3461 129.243 89.3373 129.463 89.3373C129.983 89.3373 130.433 89.4078 130.804 89.5401C131.174 89.6812 131.483 89.8753 131.721 90.1222C131.959 90.378 132.135 90.6866 132.241 91.0482C132.347 91.4098 132.409 91.8243 132.409 92.2829C132.409 92.8738 132.303 93.3765 132.1 93.7822C131.897 94.1879 131.633 94.5142 131.315 94.77C130.998 95.0169 130.645 95.1933 130.266 95.2991C129.878 95.4049 129.516 95.4579 129.163 95.4579C128.96 95.4579 128.757 95.4579 128.563 95.4579C128.369 95.4579 128.167 95.449 127.964 95.449H127.364C127.17 95.449 126.967 95.449 126.764 95.4667C126.782 95.0963 126.8 94.7259 126.817 94.3466C126.835 93.9674 126.844 93.5793 126.844 93.1913V91.6567L126.861 91.6479ZM127.593 93.1825C127.593 93.8263 127.611 94.4525 127.646 95.0698C127.77 95.0963 127.937 95.1227 128.158 95.1404C128.369 95.158 128.59 95.1668 128.819 95.1668C129.146 95.1668 129.472 95.1315 129.798 95.0522C130.124 94.9728 130.416 94.8317 130.68 94.6112C130.936 94.3995 131.148 94.1085 131.315 93.7293C131.483 93.3589 131.562 92.8738 131.562 92.2917C131.562 91.7714 131.5 91.3481 131.368 91.0129C131.236 90.6778 131.068 90.4132 130.839 90.228C130.61 90.0428 130.354 89.9017 130.036 89.8223C129.728 89.7518 129.392 89.7077 129.022 89.7077C128.757 89.7077 128.502 89.7165 128.272 89.7341C128.043 89.7518 127.831 89.7694 127.646 89.7959C127.629 90.0781 127.611 90.3779 127.602 90.6954C127.593 91.0129 127.585 91.3216 127.585 91.6479V93.1825H127.593Z" fill="white"/>
<path d="M139.843 90.4926C139.826 90.1134 139.808 89.7341 139.79 89.3373C139.87 89.3461 139.94 89.3637 140.011 89.3726C140.081 89.3814 140.152 89.3902 140.223 89.3902C140.293 89.3902 140.364 89.3902 140.434 89.3726C140.505 89.3726 140.584 89.3549 140.655 89.3373C140.637 89.7341 140.619 90.1134 140.602 90.4926C140.584 90.8718 140.575 91.2511 140.575 91.6479V93.1825C140.575 93.5794 140.575 93.9586 140.602 94.3378C140.619 94.717 140.628 95.0963 140.655 95.4579C140.514 95.449 140.372 95.4402 140.214 95.4402C140.055 95.4402 139.914 95.4402 139.773 95.4579C139.79 95.0875 139.808 94.717 139.826 94.3378C139.843 93.9586 139.852 93.5705 139.852 93.1825V92.3799C139.535 92.3799 139.217 92.3711 138.917 92.3623C138.617 92.3623 138.309 92.3623 137.982 92.3623C137.656 92.3623 137.347 92.3623 137.048 92.3623C136.748 92.3623 136.439 92.3623 136.113 92.3799V93.1825C136.113 93.5794 136.113 93.9586 136.139 94.3378C136.157 94.717 136.174 95.0963 136.192 95.4579C136.06 95.449 135.91 95.4402 135.751 95.4402C135.592 95.4402 135.451 95.4402 135.31 95.4579C135.328 95.0875 135.345 94.717 135.363 94.3378C135.381 93.9586 135.39 93.5705 135.39 93.1825V91.6479C135.39 91.2511 135.39 90.8718 135.363 90.4926C135.345 90.1134 135.328 89.7341 135.31 89.3373C135.39 89.3461 135.46 89.3637 135.531 89.3726C135.601 89.3814 135.672 89.3902 135.742 89.3902C135.813 89.3902 135.883 89.3902 135.954 89.3726C136.025 89.3726 136.104 89.3549 136.174 89.3373C136.157 89.7341 136.139 90.1134 136.122 90.4926C136.104 90.8718 136.095 91.2511 136.095 91.6479V91.9566C136.413 91.9566 136.73 91.9654 137.03 91.9742C137.33 91.9742 137.638 91.9742 137.965 91.9742C138.291 91.9742 138.6 91.9742 138.9 91.9742C139.199 91.9742 139.508 91.9654 139.834 91.9566V91.6479C139.834 91.2511 139.834 90.8718 139.808 90.4926H139.843Z" fill="white"/>
<path d="M148.91 95.4667C148.83 95.4579 148.751 95.449 148.671 95.449H148.195C148.125 95.449 148.045 95.449 147.957 95.4667C147.913 95.3344 147.86 95.1668 147.789 94.9728C147.719 94.7788 147.64 94.5759 147.551 94.3643C147.463 94.1526 147.375 93.9409 147.287 93.7205C147.199 93.5 147.11 93.2971 147.04 93.1031C146.846 93.1031 146.661 93.0943 146.458 93.0855C146.264 93.0855 146.07 93.0855 145.867 93.0855C145.682 93.0855 145.505 93.0855 145.32 93.0855C145.144 93.0855 144.958 93.0855 144.773 93.1031C144.579 93.5705 144.412 94.0115 144.253 94.426C144.094 94.8493 143.98 95.1933 143.909 95.4667C143.812 95.4579 143.697 95.449 143.583 95.449C143.468 95.449 143.353 95.449 143.256 95.4667C143.741 94.426 144.209 93.3941 144.667 92.3623C145.126 91.3304 145.585 90.2898 146.052 89.2226H146.22C146.361 89.5666 146.519 89.937 146.687 90.3427C146.855 90.7395 147.022 91.154 147.199 91.5597C147.375 91.9742 147.543 92.3799 147.719 92.7856C147.895 93.1913 148.054 93.5617 148.204 93.9145C148.354 94.2584 148.495 94.5759 148.61 94.8493C148.724 95.1227 148.83 95.3344 148.91 95.4755V95.4667ZM144.958 92.6886C145.108 92.6886 145.276 92.6886 145.444 92.6886C145.611 92.6886 145.77 92.6974 145.929 92.6974C146.096 92.6974 146.264 92.6974 146.431 92.6974C146.599 92.6974 146.766 92.6974 146.934 92.6798L145.946 90.4132L144.976 92.6798L144.958 92.6886Z" fill="white"/>
<path d="M151.582 91.6391C151.582 91.2422 151.582 90.863 151.555 90.4838C151.538 90.1046 151.52 89.7253 151.502 89.3461C151.661 89.3549 151.811 89.3726 151.979 89.3814C152.137 89.3902 152.296 89.399 152.455 89.399C152.614 89.399 152.764 89.399 152.931 89.3726C153.099 89.3461 153.249 89.3461 153.407 89.3461C153.663 89.3461 153.901 89.3637 154.131 89.4078C154.36 89.4431 154.554 89.5137 154.73 89.6107C154.907 89.7077 155.039 89.84 155.145 90.0075C155.242 90.1751 155.295 90.378 155.295 90.6337C155.295 91.0747 155.154 91.4186 154.88 91.6656C154.607 91.9125 154.245 92.0889 153.795 92.1947V92.2124C154.325 92.2388 154.739 92.3623 155.048 92.6004C155.356 92.8297 155.506 93.2001 155.506 93.7116C155.506 94.0468 155.436 94.3202 155.303 94.5495C155.162 94.7788 154.986 94.9552 154.766 95.0963C154.545 95.2374 154.307 95.3344 154.042 95.3873C153.778 95.4402 153.513 95.4755 153.249 95.4755C153.107 95.4755 152.958 95.4755 152.816 95.4755C152.667 95.4755 152.525 95.4667 152.384 95.4667H151.952C151.802 95.4667 151.661 95.4667 151.52 95.4843C151.538 95.1051 151.555 94.7259 151.573 94.3466C151.591 93.9674 151.599 93.5882 151.599 93.1913V91.6567L151.582 91.6391ZM152.799 92.0801C153.01 92.0801 153.213 92.0624 153.416 92.0183C153.619 91.9742 153.804 91.9037 153.963 91.8067C154.122 91.7097 154.254 91.5774 154.351 91.4098C154.448 91.2422 154.501 91.0394 154.501 90.7925C154.501 90.5455 154.457 90.3515 154.369 90.2104C154.28 90.0605 154.166 89.9546 154.034 89.8753C153.901 89.7959 153.742 89.743 153.566 89.7165C153.39 89.69 153.222 89.6724 153.046 89.6724C152.887 89.6724 152.764 89.6724 152.658 89.6901C152.552 89.6901 152.455 89.7077 152.375 89.7253C152.367 90.0076 152.349 90.2898 152.34 90.572C152.331 90.8542 152.323 91.1364 152.323 91.4186V92.0889H152.808L152.799 92.0801ZM152.314 93.3148C152.314 93.6146 152.314 93.9145 152.331 94.2143C152.349 94.5142 152.358 94.8141 152.367 95.1139C152.481 95.1227 152.614 95.1404 152.764 95.1492C152.922 95.1492 153.072 95.1668 153.24 95.1668C153.434 95.1668 153.61 95.1315 153.787 95.0698C153.963 95.0081 154.113 94.9111 154.245 94.7788C154.377 94.6553 154.483 94.4966 154.554 94.3025C154.624 94.1085 154.668 93.9057 154.668 93.6676C154.668 93.4118 154.624 93.2001 154.527 93.0414C154.439 92.8738 154.307 92.7503 154.131 92.6621C153.954 92.5739 153.751 92.5034 153.513 92.4681C153.275 92.4329 153.002 92.4152 152.702 92.4152H152.305V93.3236L152.314 93.3148Z" fill="white"/>
<path d="M158.558 90.4926C158.54 90.1134 158.523 89.7341 158.505 89.3373C158.584 89.3461 158.655 89.3637 158.725 89.3726C158.796 89.3814 158.867 89.3902 158.937 89.3902C159.008 89.3902 159.078 89.3902 159.149 89.3726C159.219 89.3726 159.299 89.3549 159.369 89.3373C159.352 89.7341 159.334 90.1134 159.316 90.4926C159.299 90.8718 159.29 91.2511 159.29 91.6479V93.1825C159.29 93.5794 159.29 93.9586 159.316 94.3378C159.334 94.717 159.352 95.0963 159.369 95.4579C159.228 95.449 159.087 95.4402 158.928 95.4402C158.77 95.4402 158.628 95.4402 158.487 95.4579C158.505 95.0875 158.523 94.717 158.54 94.3378C158.558 93.9586 158.567 93.5705 158.567 93.1825V91.6479C158.567 91.2511 158.567 90.8718 158.54 90.4926H158.558Z" fill="white"/>
</g>
<defs>
<filter id="filter0_d_1_44" x="0" y="0" width="258" height="101.59" filterUnits="userSpaceOnUse" color-interpolation-filters="sRGB">
<feFlood flood-opacity="0" result="BackgroundImageFix"/>
<feColorMatrix in="SourceAlpha" type="matrix" values="0 0 0 0 0 0 0 0 0 0 0 0 0 0 0 0 0 0 127 0" result="hardAlpha"/>
<feOffset dy="2"/>
<feGaussianBlur stdDeviation="2"/>
<feComposite in2="hardAlpha" operator="out"/>
<feColorMatrix type="matrix" values="0 0 0 0 0 0 0 0 0 0 0 0 0 0 0 0 0 0 0.15 0"/>
<feBlend mode="normal" in2="BackgroundImageFix" result="effect1_dropShadow_1_44"/>
<feBlend mode="normal" in="SourceGraphic" in2="effect1_dropShadow_1_44" result="shape"/>
</filter>
</defs>
</svg>
